<?xml version="1.0" encoding="utf-8"?>
<!-- Generator: Adobe Illustrator 26.4.1, SVG Export Plug-In . SVG Version: 6.00 Build 0)  -->
<svg version="1.1" id="레이어_1" xmlns="http://www.w3.org/2000/svg" xmlns:xlink="http://www.w3.org/1999/xlink" x="0px"
	 y="0px" viewBox="0 0 1888 412" style="enable-background:new 0 0 1888 412;" xml:space="preserve">
<style type="text/css">
	.st0{display:none;}
	.st1{display:inline;fill:none;stroke:#FFFFFF;stroke-width:9;stroke-miterlimit:10;}
	.st2{fill:#7160EF;}
	.st3{fill:#FFFFFF;}
	.st4{fill:#2309AA;}
</style>
<g class="st0">
	<path class="st1" d="M292.44,119.51c-30.02-23.47-73.39-18.16-96.86,11.86s-18.16,73.39,11.86,96.86s73.39,18.16,96.86-11.86
		c23.3-29.8,18.26-72.81-11.31-96.42L292.44,119.51z"/>
	<path class="st1" d="M292.72,119.73l-171.44,217 M304.09,216.64l-108.28-85.55 M234.35,107.42c10.95,37.72,44.62,64.32,83.85,66.25
		 M265.55,240.31c-10.95-37.72-44.62-64.32-83.85-66.25 M287.46,117.82c-48.83,1.59-87.12,42.47-85.53,91.3
		c0.16,4.96,0.74,9.9,1.73,14.76 M211.99,230.46c48.83-1.59,87.12-42.47,85.53-91.3c-0.16-4.96-0.74-9.9-1.73-14.76"/>
</g>
<g>
	<g>
		<polygon class="st2" points="290.73,338.59 352.71,314.03 332.92,277.08 		"/>
		<path class="st2" d="M527.92,172.08c0,61.86-47,185-112,185s-112-123.14-112-185s50.14-112,112-112S527.92,110.22,527.92,172.08z"
			/>
	</g>
	<g>
		<path class="st3" d="M415.79,247.34c-15.84,0-31.78-5.08-45.19-15.57c-15.47-12.09-25.3-29.48-27.69-48.97
			c-2.39-19.49,2.96-38.74,15.05-54.2s29.48-25.3,48.97-27.69c19.49-2.39,38.74,2.96,54.2,15.05l0.57,0.45
			c31.37,25.05,36.77,71.12,12.06,102.72C459.3,237.65,437.65,247.34,415.79,247.34z M416,109.36c-2.65,0-5.3,0.16-7.97,0.49
			c-17.1,2.09-32.36,10.72-42.97,24.3c-10.61,13.57-15.3,30.47-13.21,47.57c2.09,17.1,10.72,32.36,24.3,42.97
			c28.02,21.91,68.63,16.93,90.54-11.09c21.68-27.73,16.94-68.17-10.57-90.13l-0.53-0.42C444.13,114.09,430.31,109.36,416,109.36z"
			/>
		<path class="st3" d="M290.73,339.51l-7.06-5.58l87.14-110.3l-5.64,1.15c-1.04-5.1-1.65-10.31-1.82-15.51
			c-0.31-9.56,0.84-18.84,3.25-27.61c-6.18-1.72-12.61-2.78-19.21-3.1l0.44-8.99c7.42,0.36,14.64,1.57,21.57,3.53
			c2.9-7.57,6.76-14.67,11.44-21.16l-21.92-17.32l5.58-7.06l21.95,17.34c5.29-6.02,11.35-11.35,18.02-15.84
			c-3.57-6.35-6.45-13.17-8.55-20.38l8.64-2.51c1.87,6.44,4.44,12.54,7.61,18.23c12.26-6.63,26.19-10.59,41.04-11.07l0.19,5.75
			l1.69-2.14l7.06,5.58l-1.69,2.14l5.64-1.15c1.04,5.09,1.65,10.31,1.82,15.51c0.3,9.33-0.78,18.39-3.08,26.98
			c6.26,1.77,12.78,2.85,19.47,3.18l-0.44,8.99c-7.49-0.37-14.78-1.59-21.78-3.59c-2.84,7.57-6.64,14.69-11.26,21.2l21.95,17.34
			l-5.58,7.06l-21.93-17.32c-5.26,6.07-11.29,11.46-17.94,16.01c3.52,6.3,6.37,13.06,8.44,20.19l-8.64,2.51
			c-1.84-6.35-4.36-12.37-7.47-17.98c-12.4,6.82-26.53,10.89-41.61,11.39l-0.19-5.75L290.73,339.51z M400.82,200.18l-20.27,25.65
			c12.4-0.81,24.04-4.31,34.36-9.9C410.85,210.1,406.11,204.82,400.82,200.18z M375.15,184.52c-2.09,7.78-3.08,15.99-2.8,24.45
			c0.12,3.77,0.5,7.55,1.13,11.27l20.27-25.65C388.01,190.52,381.77,187.13,375.15,184.52z M406.4,193.11
			c6.11,5.3,11.56,11.38,16.19,18.1c5.78-3.99,11.03-8.68,15.63-13.95l-21.62-17.08L406.4,193.11z M422.19,173.12l21.59,17.06
			c4-5.69,7.3-11.9,9.8-18.49c-7.55-2.94-14.66-6.82-21.18-11.49L422.19,173.12z M377.96,175.96c7.62,2.95,14.8,6.85,21.38,11.57
			l10.21-12.92l-21.62-17.08C383.87,163.19,380.51,169.38,377.96,175.96z M393.54,150.49l21.59,17.06l10.21-12.92
			c-6.05-5.26-11.46-11.28-16.07-17.93C403.46,140.63,398.18,145.27,393.54,150.49z M437.98,153.13c5.67,4.02,11.82,7.38,18.33,9.97
			c1.97-7.59,2.9-15.57,2.63-23.79c-0.12-3.77-0.5-7.55-1.13-11.27L437.98,153.13z M416.99,132.04c4.03,5.73,8.71,10.94,13.93,15.52
			l19.83-25.1C438.59,123.25,427.16,126.63,416.99,132.04z"/>
	</g>
	<g>
		<path class="st2" d="M632.84,133.83H575v-15.01h133.41v15.01h-57.84v168.06h-17.73V133.83z"/>
		<path class="st2" d="M739.51,118.82h51.56c40.65,0,59.75,19.1,59.75,50.74c0,25.92-12.82,41.2-37.92,48.02v1.09l50.47,83.21
			h-20.46l-47.74-80.21h-38.19v80.21h-17.46V118.82z M790.53,207.49c30.56,0,41.2-14.19,41.2-37.92c0-22.92-11.46-35.74-41.47-35.74
			h-33.28v73.66H790.53z"/>
		<path class="st2" d="M944.39,118.82h17.46l67.39,183.06h-18.55l-20.73-55.93h-75.84l-20.46,55.93h-16.91L944.39,118.82z
			 M919.29,230.68h65.2l-32.19-88.12h-0.55L919.29,230.68z"/>
		<path class="st2" d="M1053.79,115h69.3c45.56,0,67.93,19.37,67.93,57.02c0,39.83-25.1,62.2-66.29,62.2h-32.19v67.93h-38.74V115z
			 M1117.9,205.85c23.73,0,32.74-10.64,32.74-32.19c0-23.46-9.55-29.46-32.19-29.46h-25.92v61.66H1117.9z"/>
		<path class="st2" d="M1217.75,115h39.01v187.15h-39.01V115z"/>
		<path class="st2" d="M1287.05,211.85v-6.82c0-67.66,39.83-93.03,88.94-93.03c21.55,0,36.56,3.27,47.74,9.28v29.19
			c-13.37-4.37-25.65-8.18-42.83-8.18c-31.92,0-52.38,17.46-52.38,59.2v9.28c0,40.38,14.73,63.57,52.65,63.57
			c20.73,0,33.56-4.91,43.92-9.55v29.19c-12.28,6.82-29.19,11.19-52.11,11.19C1320.06,305.16,1287.05,274.87,1287.05,211.85z"/>
		<path class="st2" d="M1453.19,115h38.47v187.15h-38.47V115z M1493.02,207.49c22.37-31.1,45.29-61.93,67.39-92.76
			c13.64,0,26.74,0.27,40.1,0.27l-65.75,88.67c23.46,32.74,46.65,65.48,69.57,98.49h-44.2
			C1538.04,270.78,1515.39,238.59,1493.02,207.49z"/>
	</g>
</g>
<g>
	<polygon class="st4" points="290.73,732.59 352.71,708.03 332.92,671.08 	"/>
	<path class="st4" d="M527.92,566.08c0,61.86-47,185-112,185s-112-123.14-112-185s50.14-112,112-112S527.92,504.22,527.92,566.08z"
		/>
</g>
<g>
	<path class="st3" d="M415.79,641.34c-15.84,0-31.78-5.08-45.19-15.57c-15.47-12.09-25.3-29.48-27.69-48.97
		c-2.39-19.49,2.96-38.74,15.05-54.2s29.48-25.3,48.97-27.69c19.49-2.39,38.74,2.96,54.2,15.05l0.57,0.45
		c31.37,25.05,36.77,71.12,12.06,102.72C459.3,631.65,437.65,641.34,415.79,641.34z M416,503.36c-2.65,0-5.3,0.16-7.97,0.49
		c-17.1,2.09-32.36,10.72-42.97,24.3c-10.61,13.57-15.3,30.47-13.21,47.57c2.09,17.1,10.72,32.36,24.3,42.97
		c28.02,21.91,68.63,16.93,90.54-11.09c21.68-27.73,16.94-68.17-10.57-90.13l-0.53-0.42C444.13,508.09,430.31,503.36,416,503.36z"/>
	<path class="st3" d="M290.73,733.51l-7.06-5.58l87.14-110.3l-5.64,1.15c-1.04-5.1-1.65-10.31-1.82-15.51
		c-0.31-9.56,0.84-18.84,3.25-27.61c-6.18-1.72-12.61-2.78-19.21-3.1l0.44-8.99c7.42,0.36,14.64,1.57,21.57,3.53
		c2.9-7.57,6.76-14.67,11.44-21.16l-21.92-17.32l5.58-7.06l21.95,17.34c5.29-6.02,11.35-11.35,18.02-15.84
		c-3.57-6.35-6.45-13.17-8.55-20.38l8.64-2.51c1.87,6.44,4.44,12.54,7.61,18.23c12.26-6.63,26.19-10.59,41.04-11.07l0.19,5.75
		l1.69-2.14l7.06,5.58l-1.69,2.14l5.64-1.15c1.04,5.09,1.65,10.31,1.82,15.51c0.3,9.33-0.78,18.39-3.08,26.98
		c6.26,1.77,12.78,2.85,19.47,3.18l-0.44,8.99c-7.49-0.37-14.78-1.59-21.78-3.59c-2.84,7.57-6.64,14.69-11.26,21.2l21.95,17.34
		l-5.58,7.06l-21.93-17.32c-5.26,6.07-11.29,11.46-17.94,16.01c3.52,6.3,6.37,13.06,8.44,20.19l-8.64,2.51
		c-1.84-6.35-4.36-12.37-7.47-17.98c-12.4,6.82-26.53,10.89-41.61,11.39l-0.19-5.75L290.73,733.51z M400.82,594.18l-20.27,25.65
		c12.4-0.81,24.04-4.31,34.36-9.9C410.85,604.1,406.11,598.82,400.82,594.18z M375.15,578.52c-2.09,7.78-3.08,15.99-2.8,24.45
		c0.12,3.77,0.5,7.55,1.13,11.27l20.27-25.65C388.01,584.52,381.77,581.13,375.15,578.52z M406.4,587.11
		c6.11,5.3,11.56,11.38,16.19,18.1c5.78-3.99,11.03-8.68,15.63-13.95l-21.62-17.08L406.4,587.11z M422.19,567.12l21.59,17.06
		c4-5.69,7.3-11.9,9.8-18.49c-7.55-2.94-14.66-6.82-21.18-11.49L422.19,567.12z M377.96,569.96c7.62,2.95,14.8,6.85,21.38,11.57
		l10.21-12.92l-21.62-17.08C383.87,557.19,380.51,563.38,377.96,569.96z M393.54,544.49l21.59,17.06l10.21-12.92
		c-6.05-5.26-11.46-11.28-16.07-17.93C403.46,534.63,398.18,539.27,393.54,544.49z M437.98,547.13c5.67,4.02,11.82,7.38,18.33,9.97
		c1.97-7.59,2.9-15.57,2.63-23.79c-0.12-3.77-0.5-7.55-1.13-11.27L437.98,547.13z M416.99,526.04c4.03,5.73,8.71,10.94,13.93,15.52
		l19.83-25.1C438.59,517.25,427.16,520.63,416.99,526.04z"/>
</g>
<g>
	<path class="st4" d="M632.84,527.83H575v-15.01h133.41v15.01h-57.84v168.06h-17.73V527.83z"/>
	<path class="st4" d="M739.51,512.82h51.56c40.65,0,59.75,19.1,59.75,50.74c0,25.92-12.82,41.2-37.92,48.02v1.09l50.47,83.21h-20.46
		l-47.74-80.21h-38.19v80.21h-17.46V512.82z M790.53,601.49c30.56,0,41.2-14.19,41.2-37.92c0-22.92-11.46-35.74-41.47-35.74h-33.28
		v73.66H790.53z"/>
	<path class="st4" d="M944.39,512.82h17.46l67.39,183.06h-18.55l-20.73-55.93h-75.84l-20.46,55.93h-16.91L944.39,512.82z
		 M919.29,624.68h65.2l-32.19-88.12h-0.55L919.29,624.68z"/>
	<path class="st4" d="M1053.79,509h69.3c45.56,0,67.93,19.37,67.93,57.02c0,39.83-25.1,62.2-66.29,62.2h-32.19v67.93h-38.74V509z
		 M1117.9,599.85c23.73,0,32.74-10.64,32.74-32.19c0-23.46-9.55-29.46-32.19-29.46h-25.92v61.66H1117.9z"/>
	<path class="st4" d="M1217.75,509h39.01v187.15h-39.01V509z"/>
	<path class="st4" d="M1287.05,605.85v-6.82c0-67.66,39.83-93.03,88.94-93.03c21.55,0,36.56,3.27,47.74,9.28v29.19
		c-13.37-4.37-25.65-8.18-42.83-8.18c-31.92,0-52.38,17.46-52.38,59.2v9.28c0,40.38,14.73,63.57,52.65,63.57
		c20.73,0,33.56-4.91,43.92-9.55v29.19c-12.28,6.82-29.19,11.19-52.11,11.19C1320.06,699.16,1287.05,668.87,1287.05,605.85z"/>
	<path class="st4" d="M1453.19,509h38.47v187.15h-38.47V509z M1493.02,601.49c22.37-31.1,45.29-61.93,67.39-92.76
		c13.64,0,26.74,0.27,40.1,0.27l-65.75,88.67c23.46,32.74,46.65,65.48,69.57,98.49h-44.2
		C1538.04,664.78,1515.39,632.59,1493.02,601.49z"/>
</g>
</svg>
